<svg width="24" height="29" viewBox="0 0 24 29" fill="none" xmlns="http://www.w3.org/2000/svg">
<path d="M12 14.5C12.825 14.5 13.5313 14.216 14.1188 13.6481C14.7063 13.0802 15 12.3975 15 11.6C15 10.8025 14.7063 10.1198 14.1188 9.55188C13.5313 8.98396 12.825 8.7 12 8.7C11.175 8.7 10.4688 8.98396 9.88125 9.55188C9.29375 10.1198 9 10.8025 9 11.6C9 12.3975 9.29375 13.0802 9.88125 13.6481C10.4688 14.216 11.175 14.5 12 14.5ZM12 25.1575C15.05 22.4508 17.3125 19.9919 18.7875 17.7806C20.2625 15.5694 21 13.6058 21 11.89C21 9.25583 20.1313 7.09896 18.3938 5.41937C16.6562 3.73979 14.525 2.9 12 2.9C9.475 2.9 7.34375 3.73979 5.60625 5.41937C3.86875 7.09896 3 9.25583 3 11.89C3 13.6058 3.7375 15.5694 5.2125 17.7806C6.6875 19.9919 8.95 22.4508 12 25.1575ZM12 29C7.975 25.6892 4.96875 22.614 2.98125 19.7744C0.99375 16.9348 0 14.3067 0 11.89C0 8.265 1.20625 5.37708 3.61875 3.22625C6.03125 1.07542 8.825 0 12 0C15.175 0 17.9688 1.07542 20.3813 3.22625C22.7938 5.37708 24 8.265 24 11.89C24 14.3067 23.0063 16.9348 21.0188 19.7744C19.0312 22.614 16.025 25.6892 12 29Z" fill="#FFAA00"/>
</svg>
