<svg width="5" height="7" viewBox="0 0 5 7" fill="none" xmlns="http://www.w3.org/2000/svg">
<path d="M0.614585 6.38348C0.661767 6.40802 0.714741 6.41925 0.767822 6.41596C0.820902 6.41267 0.872085 6.39499 0.915877 6.36481L4.70754 3.73981C4.74629 3.71297 4.77795 3.67714 4.79982 3.63539C4.82169 3.59363 4.83311 3.5472 4.83311 3.50006C4.83311 3.45293 4.82169 3.4065 4.79982 3.36474C4.77795 3.32299 4.74629 3.28716 4.70754 3.26031L0.915877 0.635314C0.872119 0.605037 0.820913 0.587308 0.767802 0.584045C0.714691 0.580782 0.661699 0.592111 0.614565 0.616805C0.56743 0.641499 0.52795 0.678616 0.500397 0.724139C0.472844 0.769661 0.45827 0.821853 0.458252 0.875064V6.12506C0.458243 6.1783 0.472807 6.23053 0.500365 6.27608C0.527923 6.32164 0.567423 6.35878 0.614585 6.38348Z" fill="#F20505"/>
</svg>
