<svg width="24" height="25" viewBox="0 0 24 25" fill="none" xmlns="http://www.w3.org/2000/svg">
<path d="M12 1.5625C9.81277 1.56519 7.71584 2.47146 6.16923 4.08252C4.62261 5.69358 3.75259 7.87787 3.75001 10.1562C3.74739 12.0181 4.33124 13.8295 5.41201 15.3125C5.41201 15.3125 5.63701 15.6211 5.67376 15.6656L12 23.4375L18.3293 15.6617C18.3623 15.6203 18.588 15.3125 18.588 15.3125L18.5888 15.3102C19.669 13.8278 20.2526 12.0173 20.25 10.1562C20.2474 7.87787 19.3774 5.69358 17.8308 4.08252C16.2842 2.47146 14.1873 1.56519 12 1.5625ZM12 13.2812C11.4067 13.2812 10.8266 13.098 10.3333 12.7546C9.83995 12.4112 9.45543 11.9232 9.22837 11.3521C9.00131 10.7811 8.9419 10.1528 9.05765 9.54659C9.17341 8.9404 9.45913 8.38358 9.87869 7.94654C10.2982 7.5095 10.8328 7.21187 11.4147 7.0913C11.9967 6.97072 12.5999 7.0326 13.1481 7.26913C13.6962 7.50565 14.1648 7.90619 14.4944 8.42009C14.8241 8.934 15 9.53818 15 10.1562C14.999 10.9847 14.6826 11.779 14.1202 12.3648C13.5578 12.9506 12.7954 13.2802 12 13.2812Z" fill="#E0E0E0"/>
</svg>
