<svg width="50" height="50" viewBox="0 0 50 50" fill="none" xmlns="http://www.w3.org/2000/svg">
<path d="M28.1249 25.8814C26.9497 25.8814 25.9615 25.4808 25.1602 24.6795C24.3589 23.8782 23.9583 22.89 23.9583 21.7147C23.9583 20.5395 24.3589 19.5513 25.1602 18.75C25.9615 17.9487 26.9497 17.5481 28.1249 17.5481C29.3001 17.5481 30.2884 17.9487 31.0897 18.75C31.891 19.5513 32.2916 20.5395 32.2916 21.7147C32.2916 22.89 31.891 23.8782 31.0897 24.6795C30.2884 25.4808 29.3001 25.8814 28.1249 25.8814ZM15.2243 32.532C14.2988 32.532 13.5065 32.2025 12.8475 31.5435C12.1884 30.8844 11.8589 30.0922 11.8589 29.1667V14.2628C11.8589 13.3373 12.1884 12.5451 12.8475 11.886C13.5065 11.2269 14.2988 10.8974 15.2243 10.8974H41.0256C41.9511 10.8974 42.7433 11.2269 43.4024 11.886C44.0614 12.5451 44.391 13.3373 44.391 14.2628V29.1667C44.391 30.0922 44.0614 30.8844 43.4024 31.5435C42.7433 32.2025 41.9511 32.532 41.0256 32.532H15.2243ZM17.3076 30.4487H38.9422C38.9422 29.5166 39.2718 28.7226 39.9308 28.0669C40.5899 27.4112 41.3822 27.0833 42.3076 27.0833V16.3462C41.3755 16.3462 40.5815 16.0166 39.9258 15.3576C39.2701 14.6985 38.9422 13.9063 38.9422 12.9808H17.3076C17.3076 13.9129 16.9781 14.7069 16.319 15.3626C15.66 16.0183 14.8677 16.3462 13.9422 16.3462V27.0833C14.8744 27.0833 15.6684 27.4129 16.324 28.0719C16.9798 28.731 17.3076 29.5232 17.3076 30.4487ZM38.2211 38.7821H8.97425C8.04877 38.7821 7.25651 38.4526 6.59748 37.7935C5.93842 37.1344 5.60889 36.3422 5.60889 35.4167V17.0673H7.69222V35.4167C7.69222 35.7372 7.82576 36.031 8.09285 36.2981C8.35996 36.5652 8.65377 36.6987 8.97425 36.6987H38.2211V38.7821ZM15.2243 30.4487H13.9422V12.9808H15.2243C14.8771 12.9808 14.5766 13.1076 14.3228 13.3614C14.0691 13.6151 13.9422 13.9156 13.9422 14.2628V29.1667C13.9422 29.5139 14.0691 29.8144 14.3228 30.0681C14.5766 30.3218 14.8771 30.4487 15.2243 30.4487Z" fill="black"/>
</svg>
