<svg width="24" height="26" viewBox="0 0 24 26" fill="none" xmlns="http://www.w3.org/2000/svg">
<path d="M20 11.7452H22C22 6.26718 18.127 2.13574 12.99 2.13574V4.27141C17.052 4.27141 20 7.41404 20 11.7452Z" fill="#E0E0E0"/>
<path d="M13 8.54265C15.103 8.54265 16 9.5005 16 11.7461H18C18 8.30239 16.225 6.40699 13 6.40699V8.54265ZM16.422 14.3549C16.2299 14.1684 15.9774 14.0689 15.7178 14.0775C15.4583 14.086 15.212 14.202 15.031 14.4008L12.638 17.0287C12.062 16.9113 10.904 16.5258 9.71204 15.2561C8.52004 13.9822 8.15904 12.7424 8.05204 12.1316L10.511 9.57524C10.6975 9.3821 10.8062 9.11909 10.8142 8.84186C10.8222 8.56464 10.7289 8.29496 10.554 8.08989L6.85904 3.75129C6.68408 3.54558 6.44092 3.4208 6.18119 3.40345C5.92146 3.3861 5.66564 3.47756 5.46804 3.65839L3.29804 5.64562C3.12515 5.83091 3.02196 6.07751 3.00804 6.33864C2.99304 6.6056 2.70704 12.9293 7.29904 17.8349C11.305 22.1116 16.323 22.4245 17.705 22.4245C17.907 22.4245 18.031 22.4181 18.064 22.4159C18.3086 22.4013 18.5394 22.2906 18.712 22.1052L20.572 19.7869C20.7415 19.5761 20.8273 19.303 20.8113 19.0256C20.7952 18.7483 20.6785 18.4885 20.486 18.3016L16.422 14.3549Z" fill="#E0E0E0"/>
</svg>
