<svg width="50" height="50" viewBox="0 0 50 50" fill="none" xmlns="http://www.w3.org/2000/svg">
<path d="M11.8495 39.8238C10.3334 39.8238 9.04782 39.294 7.99282 38.2346C6.93779 37.1751 6.41027 35.8886 6.41027 34.375H3.52563V13.7821C3.52563 12.8232 3.84682 12.0226 4.48918 11.3802C5.13154 10.7379 5.93216 10.4167 6.89105 10.4167H34.4552V17.9487H39.2628L46.4744 27.6442V34.375H43.109C43.109 35.8886 42.5783 37.1751 41.517 38.2346C40.4557 39.294 39.167 39.8238 37.6508 39.8238C36.1347 39.8238 34.8491 39.294 33.7941 38.2346C32.739 37.1751 32.2115 35.8886 32.2115 34.375H17.3077C17.3077 35.8975 16.7771 37.1862 15.7157 38.2412C14.6545 39.2963 13.3657 39.8238 11.8495 39.8238ZM11.859 37.7404C12.7965 37.7404 13.5917 37.4139 14.2448 36.7609C14.8979 36.1078 15.2244 35.3125 15.2244 34.375C15.2244 33.4375 14.8979 32.6423 14.2448 31.9892C13.5917 31.3362 12.7965 31.0097 11.859 31.0097C10.9215 31.0097 10.1262 31.3362 9.47319 31.9892C8.82013 32.6423 8.4936 33.4375 8.4936 34.375C8.4936 35.3125 8.82013 36.1078 9.47319 36.7609C10.1262 37.4139 10.9215 37.7404 11.859 37.7404ZM5.60897 32.2917H6.95517C7.25162 31.3729 7.85525 30.5823 8.76605 29.9199C9.67685 29.2575 10.7078 28.9263 11.859 28.9263C12.9567 28.9263 13.9744 29.2508 14.9119 29.8999C15.8494 30.5489 16.4664 31.3462 16.7628 32.2917H32.3718V12.5H6.89105C6.57053 12.5 6.27673 12.6336 6.00965 12.9006C5.74253 13.1678 5.60897 13.4616 5.60897 13.7821V32.2917ZM37.6603 37.7404C38.5978 37.7404 39.3931 37.4139 40.0461 36.7609C40.6991 36.1078 41.0256 35.3125 41.0256 34.375C41.0256 33.4375 40.6991 32.6423 40.0461 31.9892C39.3931 31.3362 38.5978 31.0097 37.6603 31.0097C36.7228 31.0097 35.9275 31.3362 35.2744 31.9892C34.6214 32.6423 34.2949 33.4375 34.2949 34.375C34.2949 35.3125 34.6214 36.1078 35.2744 36.7609C35.9275 37.4139 36.7228 37.7404 37.6603 37.7404ZM34.4552 28.125H44.2708L38.1411 20.0321H34.4552V28.125Z" fill="#1E1E1E"/>
</svg>
