<svg width="15" height="15" viewBox="0 0 15 15" fill="none" xmlns="http://www.w3.org/2000/svg">
<path d="M14.9604 5.38576C14.9132 5.24691 14.8264 5.1249 14.7108 5.0348C14.5951 4.9447 14.4555 4.89045 14.3094 4.87875L10.0336 4.539L8.18332 0.443228C8.12439 0.311312 8.02855 0.199268 7.90735 0.12062C7.78615 0.0419711 7.64479 7.94097e-05 7.50031 1.12785e-07C7.35583 -7.91842e-05 7.21441 0.0416574 7.09313 0.120173C6.97185 0.198688 6.87588 0.310627 6.81681 0.442478L4.96655 4.539L0.690774 4.87875C0.547114 4.89014 0.409776 4.94266 0.295188 5.03005C0.1806 5.11744 0.093615 5.236 0.0446398 5.37153C-0.00433531 5.50706 -0.013227 5.65383 0.0190285 5.79429C0.0512841 5.93474 0.123321 6.06293 0.226521 6.16351L3.38629 9.24378L2.26878 14.0828C2.23485 14.2293 2.24573 14.3826 2.3 14.5228C2.35427 14.663 2.44943 14.7837 2.57314 14.8691C2.69684 14.9546 2.84338 15.0009 2.99373 15.0021C3.14407 15.0032 3.2913 14.9591 3.41629 14.8756L7.50006 12.153L11.5838 14.8756C11.7116 14.9604 11.8623 15.0041 12.0156 15.0007C12.1689 14.9973 12.3175 14.9471 12.4414 14.8568C12.5653 14.7664 12.6586 14.6403 12.7087 14.4954C12.7588 14.3504 12.7633 14.1936 12.7216 14.0461L11.3498 9.24603L14.7519 6.18451C14.9746 5.98351 15.0564 5.67001 14.9604 5.38576Z" fill="#FFAA00"/>
</svg>
