<svg width="50" height="50" viewBox="0 0 50 50" fill="none" xmlns="http://www.w3.org/2000/svg">
<path d="M24.5192 41.6666V39.5833H38.3013C38.6485 39.5833 38.949 39.4765 39.2027 39.2628C39.4565 39.0491 39.5833 38.7687 39.5833 38.4214V24.0705C39.5833 20.1682 38.1484 16.909 35.2784 14.2928C32.4085 11.6767 28.9824 10.3686 25 10.3686C21.0176 10.3686 17.5915 11.6767 14.7216 14.2928C11.8516 16.909 10.4167 20.1682 10.4167 24.0705V35.8974H9.375C8.52295 35.8974 7.78911 35.6096 7.17349 35.034C6.55783 34.4585 6.25 33.7446 6.25 32.8926V28.9663C6.25 28.344 6.45233 27.7918 6.85698 27.3097C7.2616 26.8275 7.75372 26.4356 8.33333 26.1338L8.36937 23.5737C8.43347 21.3995 8.92559 19.3857 9.84573 17.532C10.7659 15.6784 11.9772 14.0652 13.4796 12.6923C14.982 11.3194 16.7274 10.2497 18.7159 9.48316C20.7044 8.7166 22.7991 8.33331 25 8.33331C27.2009 8.33331 29.2936 8.7166 31.2781 9.48316C33.2626 10.2497 35.008 11.3174 36.5144 12.6863C38.0209 14.0551 39.2321 15.6664 40.1482 17.52C41.0644 19.3736 41.5585 21.3875 41.6306 23.5617L41.6667 26.0697C42.2195 26.3288 42.705 26.6773 43.123 27.1153C43.541 27.5534 43.75 28.0796 43.75 28.6939V33.2051C43.75 33.8194 43.541 34.3456 43.123 34.7836C42.705 35.2217 42.2195 35.5702 41.6667 35.8293V38.4214C41.6667 39.3269 41.3388 40.0941 40.6831 40.7232C40.0274 41.3521 39.2335 41.6666 38.3013 41.6666H24.5192ZM19.5513 28.2051C19.1213 28.2051 18.7467 28.0589 18.4275 27.7664C18.1083 27.4739 17.9487 27.1127 17.9487 26.6827C17.9487 26.2527 18.1083 25.8847 18.4275 25.5789C18.7467 25.2731 19.1213 25.1202 19.5513 25.1202C19.9813 25.1202 20.3559 25.2731 20.6751 25.5789C20.9943 25.8847 21.1539 26.2527 21.1539 26.6827C21.1539 27.1127 20.9943 27.4739 20.6751 27.7664C20.3559 28.0589 19.9813 28.2051 19.5513 28.2051ZM30.4487 28.2051C30.0187 28.2051 29.6441 28.0589 29.3249 27.7664C29.0057 27.4739 28.8461 27.1127 28.8461 26.6827C28.8461 26.2527 29.0057 25.8847 29.3249 25.5789C29.6441 25.2731 30.0187 25.1202 30.4487 25.1202C30.8787 25.1202 31.2533 25.2731 31.5725 25.5789C31.8917 25.8847 32.0513 26.2527 32.0513 26.6827C32.0513 27.1127 31.8917 27.4739 31.5725 27.7664C31.2533 28.0589 30.8787 28.2051 30.4487 28.2051ZM13.9944 24.8958C13.8048 21.7762 14.809 19.1172 17.0072 16.919C19.2054 14.7208 21.9044 13.6218 25.1042 13.6218C27.7938 13.6218 30.177 14.429 32.2536 16.0436C34.3303 17.6582 35.5983 19.7796 36.0577 22.4078C33.2986 22.3731 30.7378 21.6693 28.3754 20.2964C26.013 18.9236 24.2001 17.0139 22.9367 14.5673C22.4346 16.9711 21.3895 19.0778 19.8017 20.8874C18.2138 22.697 16.278 24.0331 13.9944 24.8958Z" fill="black"/>
</svg>
